<mxfile host="app.diagrams.net" modified="2023-05-12T15:09:44.164Z" agent="Mozilla/5.0 (Windows NT 10.0; Win64; x64) AppleWebKit/537.36 (KHTML, like Gecko) Chrome/113.0.0.0 Safari/537.36 Edg/113.0.1774.35" etag="Y7dbO-2Fn9kKOiHJ4mgY" version="21.2.9" type="github">
  <diagram name="第 1 页" id="xl69UvYNIWuKGF_YYE_F">
    <mxGraphModel dx="1290" dy="549" grid="1" gridSize="10" guides="1" tooltips="1" connect="1" arrows="1" fold="1" page="1" pageScale="1" pageWidth="827" pageHeight="1169" math="0" shadow="0">
      <root>
        <mxCell id="0" />
        <mxCell id="1" parent="0" />
        <mxCell id="Kp3SWMMGHME06NrM-yMf-6" value="" style="verticalLabelPosition=bottom;verticalAlign=top;html=1;shape=mxgraph.basic.layered_rect;dx=10;outlineConnect=0;whiteSpace=wrap;" vertex="1" parent="1">
          <mxGeometry x="350" y="200" width="100" height="60" as="geometry" />
        </mxCell>
        <mxCell id="Kp3SWMMGHME06NrM-yMf-2" value="" style="endArrow=classic;html=1;rounded=0;" edge="1" parent="1">
          <mxGeometry width="50" height="50" relative="1" as="geometry">
            <mxPoint x="399.5" y="260" as="sourcePoint" />
            <mxPoint x="400" y="300" as="targetPoint" />
          </mxGeometry>
        </mxCell>
        <mxCell id="Kp3SWMMGHME06NrM-yMf-3" value="&lt;font style=&quot;font-size: 18px;&quot;&gt;Input&lt;/font&gt;" style="text;html=1;align=center;verticalAlign=middle;resizable=0;points=[];autosize=1;strokeColor=none;fillColor=none;" vertex="1" parent="1">
          <mxGeometry x="370" y="160" width="60" height="40" as="geometry" />
        </mxCell>
        <mxCell id="Kp3SWMMGHME06NrM-yMf-5" value="&lt;font style=&quot;font-size: 14px;&quot;&gt;Rearrange to Sequence&lt;/font&gt;" style="text;html=1;align=center;verticalAlign=middle;resizable=0;points=[];autosize=1;strokeColor=none;fillColor=none;" vertex="1" parent="1">
          <mxGeometry x="220" y="370" width="170" height="30" as="geometry" />
        </mxCell>
        <mxCell id="Kp3SWMMGHME06NrM-yMf-8" value="c x n x n" style="text;html=1;align=center;verticalAlign=middle;resizable=0;points=[];autosize=1;strokeColor=none;fillColor=none;" vertex="1" parent="1">
          <mxGeometry x="460" y="220" width="70" height="30" as="geometry" />
        </mxCell>
        <mxCell id="Kp3SWMMGHME06NrM-yMf-24" style="edgeStyle=orthogonalEdgeStyle;rounded=0;orthogonalLoop=1;jettySize=auto;html=1;exitX=0;exitY=0;exitDx=0;exitDy=25;exitPerimeter=0;dashed=True;" edge="1" parent="1" source="Kp3SWMMGHME06NrM-yMf-10">
          <mxGeometry relative="1" as="geometry">
            <mxPoint x="400" y="620" as="targetPoint" />
            <Array as="points">
              <mxPoint x="181" y="325" />
            </Array>
          </mxGeometry>
        </mxCell>
        <mxCell id="Kp3SWMMGHME06NrM-yMf-10" value="" style="verticalLabelPosition=bottom;verticalAlign=top;html=1;shape=mxgraph.basic.layered_rect;dx=10;outlineConnect=0;whiteSpace=wrap;" vertex="1" parent="1">
          <mxGeometry x="350" y="300" width="100" height="60" as="geometry" />
        </mxCell>
        <mxCell id="Kp3SWMMGHME06NrM-yMf-11" value="c x n x n" style="text;html=1;align=center;verticalAlign=middle;resizable=0;points=[];autosize=1;strokeColor=none;fillColor=none;" vertex="1" parent="1">
          <mxGeometry x="460" y="315" width="70" height="30" as="geometry" />
        </mxCell>
        <mxCell id="Kp3SWMMGHME06NrM-yMf-13" value="" style="verticalLabelPosition=bottom;verticalAlign=top;html=1;shape=mxgraph.basic.layered_rect;dx=10;outlineConnect=0;whiteSpace=wrap;" vertex="1" parent="1">
          <mxGeometry x="305" y="420" width="190" height="20" as="geometry" />
        </mxCell>
        <mxCell id="Kp3SWMMGHME06NrM-yMf-14" value="" style="endArrow=classic;html=1;rounded=0;" edge="1" parent="1" source="Kp3SWMMGHME06NrM-yMf-10">
          <mxGeometry width="50" height="50" relative="1" as="geometry">
            <mxPoint x="400" y="400" as="sourcePoint" />
            <mxPoint x="400" y="410" as="targetPoint" />
          </mxGeometry>
        </mxCell>
        <mxCell id="Kp3SWMMGHME06NrM-yMf-15" value="c x 1 x (n x n)" style="text;html=1;align=center;verticalAlign=middle;resizable=0;points=[];autosize=1;strokeColor=none;fillColor=none;" vertex="1" parent="1">
          <mxGeometry x="495" y="415" width="100" height="30" as="geometry" />
        </mxCell>
        <mxCell id="Kp3SWMMGHME06NrM-yMf-16" value="&lt;font style=&quot;font-size: 14px;&quot;&gt;conv&lt;/font&gt;" style="text;html=1;align=center;verticalAlign=middle;resizable=0;points=[];autosize=1;strokeColor=none;fillColor=none;" vertex="1" parent="1">
          <mxGeometry x="340" y="260" width="50" height="30" as="geometry" />
        </mxCell>
        <mxCell id="Kp3SWMMGHME06NrM-yMf-17" value="" style="endArrow=classic;html=1;rounded=0;" edge="1" parent="1" source="Kp3SWMMGHME06NrM-yMf-13">
          <mxGeometry width="50" height="50" relative="1" as="geometry">
            <mxPoint x="400" y="450" as="sourcePoint" />
            <mxPoint x="400" y="500" as="targetPoint" />
          </mxGeometry>
        </mxCell>
        <mxCell id="Kp3SWMMGHME06NrM-yMf-18" value="&lt;font style=&quot;font-size: 14px;&quot;&gt;Seq2Seq (Transformer)&amp;nbsp;&lt;/font&gt;" style="text;html=1;align=center;verticalAlign=middle;resizable=0;points=[];autosize=1;strokeColor=none;fillColor=none;" vertex="1" parent="1">
          <mxGeometry x="220" y="445" width="170" height="30" as="geometry" />
        </mxCell>
        <mxCell id="Kp3SWMMGHME06NrM-yMf-19" value="&lt;font style=&quot;font-size: 14px;&quot;&gt;Rearrange&lt;/font&gt;" style="text;html=1;align=center;verticalAlign=middle;resizable=0;points=[];autosize=1;strokeColor=none;fillColor=none;" vertex="1" parent="1">
          <mxGeometry x="300" y="470" width="90" height="30" as="geometry" />
        </mxCell>
        <mxCell id="Kp3SWMMGHME06NrM-yMf-22" value="" style="verticalLabelPosition=bottom;verticalAlign=top;html=1;shape=mxgraph.basic.layered_rect;dx=10;outlineConnect=0;whiteSpace=wrap;" vertex="1" parent="1">
          <mxGeometry x="350" y="510" width="100" height="60" as="geometry" />
        </mxCell>
        <mxCell id="Kp3SWMMGHME06NrM-yMf-23" value="c x n x n" style="text;html=1;align=center;verticalAlign=middle;resizable=0;points=[];autosize=1;strokeColor=none;fillColor=none;" vertex="1" parent="1">
          <mxGeometry x="460" y="525" width="70" height="30" as="geometry" />
        </mxCell>
        <mxCell id="Kp3SWMMGHME06NrM-yMf-30" style="edgeStyle=orthogonalEdgeStyle;rounded=0;orthogonalLoop=1;jettySize=auto;html=1;exitX=0.5;exitY=1;exitDx=0;exitDy=0;" edge="1" parent="1" source="Kp3SWMMGHME06NrM-yMf-27">
          <mxGeometry relative="1" as="geometry">
            <mxPoint x="400" y="650" as="targetPoint" />
          </mxGeometry>
        </mxCell>
        <mxCell id="Kp3SWMMGHME06NrM-yMf-27" value="" style="shape=orEllipse;perimeter=ellipsePerimeter;whiteSpace=wrap;html=1;backgroundOutline=1;" vertex="1" parent="1">
          <mxGeometry x="389.5" y="610" width="21" height="20" as="geometry" />
        </mxCell>
        <mxCell id="Kp3SWMMGHME06NrM-yMf-28" value="Short Cut" style="text;html=1;align=center;verticalAlign=middle;resizable=0;points=[];autosize=1;strokeColor=none;fillColor=none;" vertex="1" parent="1">
          <mxGeometry x="100" y="440" width="70" height="30" as="geometry" />
        </mxCell>
        <mxCell id="Kp3SWMMGHME06NrM-yMf-29" value="" style="endArrow=none;html=1;rounded=0;exitX=0.5;exitY=0;exitDx=0;exitDy=0;" edge="1" parent="1" source="Kp3SWMMGHME06NrM-yMf-27">
          <mxGeometry width="50" height="50" relative="1" as="geometry">
            <mxPoint x="380" y="610" as="sourcePoint" />
            <mxPoint x="400" y="570" as="targetPoint" />
          </mxGeometry>
        </mxCell>
        <mxCell id="Kp3SWMMGHME06NrM-yMf-31" value="" style="verticalLabelPosition=bottom;verticalAlign=top;html=1;shape=mxgraph.basic.layered_rect;dx=10;outlineConnect=0;whiteSpace=wrap;" vertex="1" parent="1">
          <mxGeometry x="350" y="660" width="100" height="60" as="geometry" />
        </mxCell>
        <mxCell id="Kp3SWMMGHME06NrM-yMf-32" value="c x n x n" style="text;html=1;align=center;verticalAlign=middle;resizable=0;points=[];autosize=1;strokeColor=none;fillColor=none;" vertex="1" parent="1">
          <mxGeometry x="460" y="675" width="70" height="30" as="geometry" />
        </mxCell>
        <mxCell id="Kp3SWMMGHME06NrM-yMf-33" value="" style="endArrow=classic;html=1;rounded=0;" edge="1" parent="1" source="Kp3SWMMGHME06NrM-yMf-31">
          <mxGeometry width="50" height="50" relative="1" as="geometry">
            <mxPoint x="400" y="770" as="sourcePoint" />
            <mxPoint x="400" y="780" as="targetPoint" />
          </mxGeometry>
        </mxCell>
        <mxCell id="Kp3SWMMGHME06NrM-yMf-34" value="&lt;font style=&quot;font-size: 14px;&quot;&gt;Pooling Or Conv&lt;/font&gt;" style="text;html=1;align=center;verticalAlign=middle;resizable=0;points=[];autosize=1;strokeColor=none;fillColor=none;" vertex="1" parent="1">
          <mxGeometry x="259.5" y="730" width="130" height="30" as="geometry" />
        </mxCell>
        <mxCell id="Kp3SWMMGHME06NrM-yMf-35" value="&lt;font style=&quot;font-size: 18px;&quot;&gt;Smaller Feature Map&lt;/font&gt;" style="text;html=1;align=center;verticalAlign=middle;resizable=0;points=[];autosize=1;strokeColor=none;fillColor=none;" vertex="1" parent="1">
          <mxGeometry x="305" y="790" width="190" height="40" as="geometry" />
        </mxCell>
      </root>
    </mxGraphModel>
  </diagram>
</mxfile>
